<svg width="1283" height="610" viewBox="0 0 1283 610" fill="none" xmlns="http://www.w3.org/2000/svg">
<path stroke="#DDDDDD" d="M824.857 141H815.143V65.304C825.76 61.7177 833.428 51.6697 833.428 39.8571C833.428 25.048 821.38 13 806.571 13H715.143C700.334 13 688.286 25.048 688.286 39.8571C688.286 51.6697 695.954 61.7177 706.571 65.304V141H577.428V65.304C588.046 61.7177 595.714 51.6697 595.714 39.8571C595.714 25.048 583.666 13 568.857 13H477.428C462.619 13 450.571 25.048 450.571 39.8571C450.571 51.6697 458.24 61.7177 468.857 65.304V141H459.143C454.409 141 450.571 144.838 450.571 149.571C450.571 154.305 454.409 158.143 459.143 158.143H468.857V396.429C468.857 426.361 493.21 450.714 523.143 450.714C553.075 450.714 577.428 426.361 577.428 396.429V158.143H633.428V543.286H568.857C543.966 543.286 523.714 563.537 523.714 588.429C523.714 593.162 527.552 597 532.286 597H751.714C756.448 597 760.286 593.162 760.286 588.429C760.286 563.537 740.034 543.286 715.143 543.286H650.571V158.143H706.571V396.429C706.571 426.361 730.924 450.714 760.857 450.714C790.79 450.714 815.143 426.361 815.143 396.429V158.143H824.857C829.591 158.143 833.428 154.305 833.428 149.571C833.428 144.838 829.591 141 824.857 141ZM477.428 30.1429H568.857C574.214 30.1429 578.571 34.5006 578.571 39.8571C578.571 45.2137 574.214 49.5714 568.857 49.5714H477.428C472.072 49.5714 467.714 45.2137 467.714 39.8571C467.714 34.5006 472.072 30.1429 477.428 30.1429ZM486 66.7143H560.286V141H486V66.7143ZM523.143 433.571C502.663 433.571 486 416.909 486 396.429V215.047C486.719 215.438 487.446 215.872 488.236 216.347C492.535 218.929 497.884 222.143 507.872 222.143C517.868 222.143 523.224 218.931 527.527 216.351C530.891 214.333 533.114 213 538.364 213C543.615 213 545.838 214.334 549.203 216.351C552.072 218.071 555.418 220.067 560.286 221.21V396.429C560.286 416.909 543.623 433.571 523.143 433.571ZM560.286 202.965C559.558 202.57 558.822 202.13 558.019 201.649C553.715 199.069 548.361 195.857 538.364 195.857C528.368 195.857 523.012 199.069 518.71 201.649C515.345 203.667 513.122 205 507.872 205C502.636 205 500.419 203.667 497.063 201.651C494.199 199.931 490.858 197.936 485.999 196.792V158.143H560.284V202.965H560.286ZM741.801 579.857H542.199C545.827 568.597 556.407 560.429 568.857 560.429H715.143C727.594 560.429 738.172 568.597 741.801 579.857ZM715.143 30.1429H806.571C811.928 30.1429 816.286 34.5006 816.286 39.8571C816.286 45.2137 811.928 49.5714 806.571 49.5714H715.143C709.786 49.5714 705.428 45.2137 705.428 39.8571C705.428 34.5006 709.786 30.1429 715.143 30.1429ZM723.714 66.7143H798V141H723.714V66.7143ZM760.857 433.571C740.377 433.571 723.714 416.909 723.714 396.429V215.047C724.433 215.438 725.16 215.872 725.951 216.347C730.249 218.929 735.599 222.143 745.586 222.143C755.583 222.143 760.938 218.931 765.241 216.351C768.606 214.333 770.828 213 776.079 213C781.329 213 783.552 214.334 786.918 216.351C789.786 218.071 793.132 220.067 798 221.21V396.429C798 416.909 781.337 433.571 760.857 433.571ZM798 202.965C797.272 202.57 796.536 202.13 795.734 201.649C791.43 199.069 786.075 195.857 776.079 195.857C766.082 195.857 760.727 199.069 756.424 201.649C753.059 203.667 750.836 205 745.586 205C740.351 205 738.134 203.667 734.777 201.651C731.913 199.931 728.572 197.936 723.713 196.792V158.143H797.999V202.965H798Z" stroke-width="2" stroke-miterlimit="7.1853" stroke-linecap="round" stroke-linejoin="round" stroke-dasharray="6 6"/>
<path d="M532.286 241.572C530.035 241.572 527.818 242.486 526.229 244.086C524.629 245.674 523.715 247.892 523.715 250.143C523.715 252.394 524.629 254.612 526.229 256.2C527.818 257.8 530.035 258.714 532.286 258.714C534.538 258.714 536.755 257.8 538.343 256.2C539.943 254.612 540.858 252.394 540.858 250.143C540.858 247.892 539.943 245.674 538.343 244.086C536.755 242.486 534.538 241.572 532.286 241.572Z" fill="#0AB518" fill-opacity="0.35"/>
<path d="M504.858 269C502.606 269 500.389 269.914 498.8 271.514C497.2 273.103 496.286 275.32 496.286 277.571C496.286 279.834 497.2 282.04 498.8 283.629C500.389 285.229 502.606 286.143 504.858 286.143C507.109 286.143 509.326 285.229 510.915 283.629C512.515 282.04 513.429 279.823 513.429 277.571C513.429 275.32 512.515 273.103 510.915 271.514C509.326 269.914 507.109 269 504.858 269Z" fill="#0AB518" fill-opacity="0.35"/>
<path d="M770 250.714C767.749 250.714 765.532 251.629 763.943 253.229C762.343 254.817 761.429 257.034 761.429 259.286C761.429 261.537 762.343 263.754 763.943 265.343C765.532 266.943 767.749 267.857 770 267.857C772.252 267.857 774.469 266.943 776.057 265.343C777.657 263.754 778.572 261.537 778.572 259.286C778.572 257.034 777.657 254.817 776.057 253.229C774.469 251.629 772.252 250.714 770 250.714Z" fill="#0AB518" fill-opacity="0.35"/>
<path d="M751.715 287.286C749.452 287.286 747.246 288.2 745.658 289.8C744.058 291.389 743.144 293.606 743.144 295.857C743.144 298.109 744.058 300.326 745.658 301.914C747.246 303.514 749.464 304.429 751.715 304.429C753.966 304.429 756.184 303.514 757.772 301.914C759.372 300.326 760.286 298.109 760.286 295.857C760.286 293.606 759.372 291.389 757.772 289.8C756.184 288.2 753.978 287.286 751.715 287.286Z" fill="#0AB518" fill-opacity="0.35"/>
<path d="M770 333C767.737 333 765.532 333.914 763.943 335.514C762.343 337.103 761.429 339.32 761.429 341.571C761.429 343.823 762.343 346.04 763.943 347.629C765.532 349.229 767.749 350.143 770 350.143C772.252 350.143 774.469 349.229 776.057 347.629C777.657 346.04 778.572 343.823 778.572 341.571C778.572 339.32 777.657 337.103 776.057 335.514C774.469 333.914 772.252 333 770 333Z" fill="#0AB518" fill-opacity="0.35"/>
<path d="M532.286 296.429C530.035 296.429 527.818 297.343 526.229 298.943C524.629 300.532 523.715 302.749 523.715 305C523.715 307.252 524.629 309.469 526.229 311.057C527.818 312.657 530.035 313.572 532.286 313.572C534.538 313.572 536.755 312.657 538.343 311.057C539.943 309.469 540.858 307.252 540.858 305C540.858 302.749 539.943 300.532 538.343 298.943C536.755 297.343 534.538 296.429 532.286 296.429Z" fill="#0AB518" fill-opacity="0.35"/>
</svg>
